G04 (created by PCBNEW (2013-07-07 BZR 4022)-stable) date 1/28/2014 12:53:12 PM*
%MOIN*%
G04 Gerber Fmt 3.4, Leading zero omitted, Abs format*
%FSLAX34Y34*%
G01*
G70*
G90*
G04 APERTURE LIST*
%ADD10C,0.006*%
%ADD11C,0.00590551*%
G04 APERTURE END LIST*
G54D10*
G54D11*
X19510Y-16700D02*
X19510Y-11500D01*
X19510Y-11500D02*
X12110Y-11500D01*
X12110Y-11500D02*
X12110Y-16700D01*
X19510Y-16700D02*
X17310Y-18500D01*
X17310Y-18500D02*
X14110Y-18500D01*
X14110Y-18500D02*
X12110Y-16700D01*
X16219Y-12453D02*
X16163Y-12471D01*
X16144Y-12490D01*
X16125Y-12528D01*
X16125Y-12584D01*
X16144Y-12621D01*
X16163Y-12640D01*
X16200Y-12659D01*
X16350Y-12659D01*
X16350Y-12265D01*
X16219Y-12265D01*
X16181Y-12284D01*
X16163Y-12303D01*
X16144Y-12340D01*
X16144Y-12378D01*
X16163Y-12415D01*
X16181Y-12434D01*
X16219Y-12453D01*
X16350Y-12453D01*
X16013Y-12265D02*
X15788Y-12265D01*
X15900Y-12659D02*
X15900Y-12265D01*
X15450Y-12659D02*
X15675Y-12659D01*
X15563Y-12659D02*
X15563Y-12265D01*
X15600Y-12321D01*
X15638Y-12359D01*
X15675Y-12378D01*
X16634Y-16221D02*
X16653Y-16240D01*
X16709Y-16259D01*
X16747Y-16259D01*
X16803Y-16240D01*
X16841Y-16203D01*
X16859Y-16165D01*
X16878Y-16090D01*
X16878Y-16034D01*
X16859Y-15959D01*
X16841Y-15921D01*
X16803Y-15884D01*
X16747Y-15865D01*
X16709Y-15865D01*
X16653Y-15884D01*
X16634Y-15903D01*
X16241Y-16259D02*
X16372Y-16071D01*
X16466Y-16259D02*
X16466Y-15865D01*
X16316Y-15865D01*
X16278Y-15884D01*
X16259Y-15903D01*
X16241Y-15940D01*
X16241Y-15996D01*
X16259Y-16034D01*
X16278Y-16053D01*
X16316Y-16071D01*
X16466Y-16071D01*
X16091Y-15903D02*
X16072Y-15884D01*
X16034Y-15865D01*
X15941Y-15865D01*
X15903Y-15884D01*
X15884Y-15903D01*
X15866Y-15940D01*
X15866Y-15978D01*
X15884Y-16034D01*
X16109Y-16259D01*
X15866Y-16259D01*
X15622Y-15865D02*
X15585Y-15865D01*
X15547Y-15884D01*
X15528Y-15903D01*
X15510Y-15940D01*
X15491Y-16015D01*
X15491Y-16109D01*
X15510Y-16184D01*
X15528Y-16221D01*
X15547Y-16240D01*
X15585Y-16259D01*
X15622Y-16259D01*
X15660Y-16240D01*
X15678Y-16221D01*
X15697Y-16184D01*
X15716Y-16109D01*
X15716Y-16015D01*
X15697Y-15940D01*
X15678Y-15903D01*
X15660Y-15884D01*
X15622Y-15865D01*
X15360Y-15865D02*
X15116Y-15865D01*
X15247Y-16015D01*
X15191Y-16015D01*
X15153Y-16034D01*
X15135Y-16053D01*
X15116Y-16090D01*
X15116Y-16184D01*
X15135Y-16221D01*
X15153Y-16240D01*
X15191Y-16259D01*
X15303Y-16259D01*
X15341Y-16240D01*
X15360Y-16221D01*
X14966Y-15903D02*
X14947Y-15884D01*
X14910Y-15865D01*
X14816Y-15865D01*
X14778Y-15884D01*
X14760Y-15903D01*
X14741Y-15940D01*
X14741Y-15978D01*
X14760Y-16034D01*
X14985Y-16259D01*
X14741Y-16259D01*
M02*
