G04 (created by PCBNEW (2013-07-07 BZR 4022)-stable) date 1/28/2014 12:53:12 PM*
%MOIN*%
G04 Gerber Fmt 3.4, Leading zero omitted, Abs format*
%FSLAX34Y34*%
G01*
G70*
G90*
G04 APERTURE LIST*
%ADD10C,0.006*%
%ADD11C,0.011811*%
%ADD12R,0.045X0.02*%
%ADD13R,0.06X0.08*%
%ADD14R,0.08X0.06*%
%ADD15C,0.055*%
%ADD16R,0.0629X0.0709*%
%ADD17C,0.12*%
G04 APERTURE END LIST*
G54D10*
G54D11*
X11433Y-10354D02*
X11533Y-10392D01*
X11566Y-10430D01*
X11600Y-10507D01*
X11600Y-10621D01*
X11566Y-10697D01*
X11533Y-10735D01*
X11466Y-10773D01*
X11200Y-10773D01*
X11200Y-9973D01*
X11433Y-9973D01*
X11500Y-10011D01*
X11533Y-10050D01*
X11566Y-10126D01*
X11566Y-10202D01*
X11533Y-10278D01*
X11500Y-10316D01*
X11433Y-10354D01*
X11200Y-10354D01*
X12000Y-10773D02*
X11933Y-10735D01*
X11900Y-10659D01*
X11900Y-9973D01*
X12266Y-10773D02*
X12266Y-10240D01*
X12266Y-9973D02*
X12233Y-10011D01*
X12266Y-10050D01*
X12300Y-10011D01*
X12266Y-9973D01*
X12266Y-10050D01*
X12600Y-10240D02*
X12600Y-10773D01*
X12600Y-10316D02*
X12633Y-10278D01*
X12700Y-10240D01*
X12800Y-10240D01*
X12866Y-10278D01*
X12900Y-10354D01*
X12900Y-10773D01*
X13233Y-10773D02*
X13233Y-9973D01*
X13300Y-10469D02*
X13500Y-10773D01*
X13500Y-10240D02*
X13233Y-10545D01*
X13733Y-10240D02*
X13900Y-10773D01*
X14066Y-10240D02*
X13900Y-10773D01*
X13833Y-10964D01*
X13800Y-11002D01*
X13733Y-11040D01*
G54D12*
X17050Y-14350D03*
X17050Y-14850D03*
X17050Y-15350D03*
X17050Y-15850D03*
X14550Y-15850D03*
X14550Y-15350D03*
X14550Y-14850D03*
X14550Y-14350D03*
G54D13*
X15800Y-12300D03*
X14500Y-12300D03*
G54D14*
X18450Y-14850D03*
X18450Y-16150D03*
X12800Y-16550D03*
X12800Y-17850D03*
G54D15*
X20050Y-10450D03*
X20050Y-11450D03*
G54D16*
X15251Y-17850D03*
X16369Y-17850D03*
G54D17*
X20060Y-14300D03*
X11560Y-14300D03*
M02*
