G04 (created by PCBNEW (2013-07-07 BZR 4022)-stable) date 1/28/2014 12:53:12 PM*
%MOIN*%
G04 Gerber Fmt 3.4, Leading zero omitted, Abs format*
%FSLAX34Y34*%
G01*
G70*
G90*
G04 APERTURE LIST*
%ADD10C,0.006*%
%ADD11C,0.005*%
%ADD12C,0.015*%
%ADD13C,0.0026*%
%ADD14C,0.004*%
%ADD15C,0.008*%
%ADD16C,0.0035*%
G04 APERTURE END LIST*
G54D10*
G54D11*
X16700Y-14100D02*
X16700Y-16100D01*
X16700Y-16100D02*
X14900Y-16100D01*
X14900Y-16100D02*
X14900Y-14100D01*
X14900Y-14100D02*
X16700Y-14100D01*
X16100Y-14100D02*
X16100Y-14300D01*
X16100Y-14300D02*
X15600Y-14300D01*
X15600Y-14300D02*
X15600Y-14100D01*
X16150Y-12750D02*
X16150Y-11850D01*
X16150Y-11850D02*
X15500Y-11850D01*
X14800Y-12750D02*
X14150Y-12750D01*
X14150Y-12750D02*
X14150Y-11850D01*
X14150Y-11850D02*
X14800Y-11850D01*
X15500Y-12750D02*
X16150Y-12750D01*
X18900Y-14500D02*
X18000Y-14500D01*
X18000Y-14500D02*
X18000Y-15150D01*
X18900Y-15850D02*
X18900Y-16500D01*
X18900Y-16500D02*
X18000Y-16500D01*
X18000Y-16500D02*
X18000Y-15850D01*
X18900Y-15150D02*
X18900Y-14500D01*
X13250Y-16200D02*
X12350Y-16200D01*
X12350Y-16200D02*
X12350Y-16850D01*
X13250Y-17550D02*
X13250Y-18200D01*
X13250Y-18200D02*
X12350Y-18200D01*
X12350Y-18200D02*
X12350Y-17550D01*
X13250Y-16850D02*
X13250Y-16200D01*
G54D12*
X20050Y-10450D02*
X20050Y-11450D01*
X20609Y-10450D02*
G75*
G03X20609Y-10450I-559J0D01*
G74*
G01*
G54D13*
X15771Y-17889D02*
X15849Y-17889D01*
X15849Y-17889D02*
X15849Y-17811D01*
X15771Y-17811D02*
X15849Y-17811D01*
X15771Y-17889D02*
X15771Y-17811D01*
X15987Y-18125D02*
X16124Y-18125D01*
X16124Y-18125D02*
X16124Y-18027D01*
X15987Y-18027D02*
X16124Y-18027D01*
X15987Y-18125D02*
X15987Y-18027D01*
X16124Y-18125D02*
X16164Y-18125D01*
X16164Y-18125D02*
X16164Y-17654D01*
X16124Y-17654D02*
X16164Y-17654D01*
X16124Y-18125D02*
X16124Y-17654D01*
X16124Y-17634D02*
X16164Y-17634D01*
X16164Y-17634D02*
X16164Y-17575D01*
X16124Y-17575D02*
X16164Y-17575D01*
X16124Y-17634D02*
X16124Y-17575D01*
X15456Y-18125D02*
X15496Y-18125D01*
X15496Y-18125D02*
X15496Y-17654D01*
X15456Y-17654D02*
X15496Y-17654D01*
X15456Y-18125D02*
X15456Y-17654D01*
X15456Y-17634D02*
X15496Y-17634D01*
X15496Y-17634D02*
X15496Y-17575D01*
X15456Y-17575D02*
X15496Y-17575D01*
X15456Y-17634D02*
X15456Y-17575D01*
X15987Y-18125D02*
X16046Y-18125D01*
X16046Y-18125D02*
X16046Y-18027D01*
X15987Y-18027D02*
X16046Y-18027D01*
X15987Y-18125D02*
X15987Y-18027D01*
G54D14*
X16420Y-18145D02*
X15200Y-18145D01*
X15200Y-18145D02*
X15200Y-17555D01*
X15200Y-17555D02*
X16420Y-17555D01*
X16420Y-17555D02*
X16420Y-18145D01*
X15594Y-18046D02*
G75*
G03X16026Y-18045I215J196D01*
G74*
G01*
X15594Y-17653D02*
G75*
G03X15593Y-18045I215J-196D01*
G74*
G01*
X16025Y-17653D02*
G75*
G03X15593Y-17654I-215J-196D01*
G74*
G01*
X16025Y-18046D02*
G75*
G03X16026Y-17654I-215J196D01*
G74*
G01*
G54D11*
X16795Y-13532D02*
X16795Y-13896D01*
X16814Y-13939D01*
X16833Y-13960D01*
X16871Y-13982D01*
X16947Y-13982D01*
X16985Y-13960D01*
X17004Y-13939D01*
X17023Y-13896D01*
X17023Y-13532D01*
X17423Y-13982D02*
X17195Y-13982D01*
X17309Y-13982D02*
X17309Y-13532D01*
X17271Y-13596D01*
X17233Y-13639D01*
X17195Y-13660D01*
X15095Y-16211D02*
X15361Y-16211D01*
X15190Y-16611D01*
X15704Y-16211D02*
X15514Y-16211D01*
X15495Y-16402D01*
X15514Y-16383D01*
X15552Y-16364D01*
X15647Y-16364D01*
X15685Y-16383D01*
X15704Y-16402D01*
X15723Y-16440D01*
X15723Y-16535D01*
X15704Y-16573D01*
X15685Y-16592D01*
X15647Y-16611D01*
X15552Y-16611D01*
X15514Y-16592D01*
X15495Y-16573D01*
X16085Y-16211D02*
X15895Y-16211D01*
X15876Y-16402D01*
X15895Y-16383D01*
X15933Y-16364D01*
X16028Y-16364D01*
X16066Y-16383D01*
X16085Y-16402D01*
X16104Y-16440D01*
X16104Y-16535D01*
X16085Y-16573D01*
X16066Y-16592D01*
X16028Y-16611D01*
X15933Y-16611D01*
X15895Y-16592D01*
X15876Y-16573D01*
X16466Y-16211D02*
X16276Y-16211D01*
X16257Y-16402D01*
X16276Y-16383D01*
X16314Y-16364D01*
X16409Y-16364D01*
X16447Y-16383D01*
X16466Y-16402D01*
X16485Y-16440D01*
X16485Y-16535D01*
X16466Y-16573D01*
X16447Y-16592D01*
X16409Y-16611D01*
X16314Y-16611D01*
X16276Y-16592D01*
X16257Y-16573D01*
X15100Y-11742D02*
X15085Y-11757D01*
X15042Y-11771D01*
X15014Y-11771D01*
X14971Y-11757D01*
X14942Y-11728D01*
X14928Y-11700D01*
X14914Y-11642D01*
X14914Y-11600D01*
X14928Y-11542D01*
X14942Y-11514D01*
X14971Y-11485D01*
X15014Y-11471D01*
X15042Y-11471D01*
X15085Y-11485D01*
X15100Y-11500D01*
X15385Y-11771D02*
X15214Y-11771D01*
X15300Y-11771D02*
X15300Y-11471D01*
X15271Y-11514D01*
X15242Y-11542D01*
X15214Y-11557D01*
X19321Y-15550D02*
X19178Y-15650D01*
X19321Y-15721D02*
X19021Y-15721D01*
X19021Y-15607D01*
X19035Y-15578D01*
X19050Y-15564D01*
X19078Y-15550D01*
X19121Y-15550D01*
X19150Y-15564D01*
X19164Y-15578D01*
X19178Y-15607D01*
X19178Y-15721D01*
X19321Y-15264D02*
X19321Y-15435D01*
X19321Y-15350D02*
X19021Y-15350D01*
X19064Y-15378D01*
X19092Y-15407D01*
X19107Y-15435D01*
X13821Y-17200D02*
X13678Y-17300D01*
X13821Y-17371D02*
X13521Y-17371D01*
X13521Y-17257D01*
X13535Y-17228D01*
X13550Y-17214D01*
X13578Y-17200D01*
X13621Y-17200D01*
X13650Y-17214D01*
X13664Y-17228D01*
X13678Y-17257D01*
X13678Y-17371D01*
X13550Y-17085D02*
X13535Y-17071D01*
X13521Y-17042D01*
X13521Y-16971D01*
X13535Y-16942D01*
X13550Y-16928D01*
X13578Y-16914D01*
X13607Y-16914D01*
X13650Y-16928D01*
X13821Y-17100D01*
X13821Y-16914D01*
G54D15*
X18722Y-11204D02*
X19272Y-11038D01*
X18722Y-10871D01*
X19272Y-10419D02*
X19010Y-10585D01*
X19272Y-10704D02*
X18722Y-10704D01*
X18722Y-10514D01*
X18748Y-10466D01*
X18775Y-10442D01*
X18827Y-10419D01*
X18905Y-10419D01*
X18958Y-10442D01*
X18984Y-10466D01*
X19010Y-10514D01*
X19010Y-10704D01*
X19272Y-9942D02*
X19272Y-10228D01*
X19272Y-10085D02*
X18722Y-10085D01*
X18801Y-10133D01*
X18853Y-10180D01*
X18879Y-10228D01*
G54D16*
X15607Y-17321D02*
X15464Y-17321D01*
X15464Y-17021D01*
X15707Y-17164D02*
X15807Y-17164D01*
X15850Y-17321D02*
X15707Y-17321D01*
X15707Y-17021D01*
X15850Y-17021D01*
X15978Y-17321D02*
X15978Y-17021D01*
X16050Y-17021D01*
X16092Y-17035D01*
X16121Y-17064D01*
X16135Y-17092D01*
X16150Y-17150D01*
X16150Y-17192D01*
X16135Y-17250D01*
X16121Y-17278D01*
X16092Y-17307D01*
X16050Y-17321D01*
X15978Y-17321D01*
M02*
