G04 (created by PCBNEW (2013-07-07 BZR 4022)-stable) date 1/29/2014 5:58:00 PM*
%MOIN*%
G04 Gerber Fmt 3.4, Leading zero omitted, Abs format*
%FSLAX34Y34*%
G01*
G70*
G90*
G04 APERTURE LIST*
%ADD10C,0.00590551*%
%ADD11C,0.00984252*%
%ADD12C,0.0001*%
G04 APERTURE END LIST*
G54D10*
G54D11*
X75271Y-46740D02*
X75215Y-46759D01*
X75121Y-46759D01*
X75084Y-46740D01*
X75065Y-46721D01*
X75046Y-46684D01*
X75046Y-46646D01*
X75065Y-46609D01*
X75084Y-46590D01*
X75121Y-46571D01*
X75196Y-46553D01*
X75234Y-46534D01*
X75252Y-46515D01*
X75271Y-46478D01*
X75271Y-46440D01*
X75252Y-46403D01*
X75234Y-46384D01*
X75196Y-46365D01*
X75102Y-46365D01*
X75046Y-46384D01*
X74821Y-46759D02*
X74859Y-46740D01*
X74877Y-46721D01*
X74896Y-46684D01*
X74896Y-46571D01*
X74877Y-46534D01*
X74859Y-46515D01*
X74821Y-46496D01*
X74765Y-46496D01*
X74727Y-46515D01*
X74709Y-46534D01*
X74690Y-46571D01*
X74690Y-46684D01*
X74709Y-46721D01*
X74727Y-46740D01*
X74765Y-46759D01*
X74821Y-46759D01*
X74465Y-46759D02*
X74502Y-46740D01*
X74521Y-46703D01*
X74521Y-46365D01*
X74146Y-46759D02*
X74146Y-46365D01*
X74146Y-46740D02*
X74184Y-46759D01*
X74259Y-46759D01*
X74296Y-46740D01*
X74315Y-46721D01*
X74334Y-46684D01*
X74334Y-46571D01*
X74315Y-46534D01*
X74296Y-46515D01*
X74259Y-46496D01*
X74184Y-46496D01*
X74146Y-46515D01*
X73809Y-46740D02*
X73846Y-46759D01*
X73921Y-46759D01*
X73959Y-46740D01*
X73977Y-46703D01*
X73977Y-46553D01*
X73959Y-46515D01*
X73921Y-46496D01*
X73846Y-46496D01*
X73809Y-46515D01*
X73790Y-46553D01*
X73790Y-46590D01*
X73977Y-46628D01*
X73621Y-46759D02*
X73621Y-46496D01*
X73621Y-46571D02*
X73602Y-46534D01*
X73584Y-46515D01*
X73546Y-46496D01*
X73509Y-46496D01*
X73378Y-46759D02*
X73378Y-46496D01*
X73378Y-46365D02*
X73396Y-46384D01*
X73378Y-46403D01*
X73359Y-46384D01*
X73378Y-46365D01*
X73378Y-46403D01*
X73190Y-46496D02*
X73190Y-46759D01*
X73190Y-46534D02*
X73171Y-46515D01*
X73134Y-46496D01*
X73078Y-46496D01*
X73040Y-46515D01*
X73021Y-46553D01*
X73021Y-46759D01*
X72665Y-46496D02*
X72665Y-46815D01*
X72684Y-46853D01*
X72703Y-46871D01*
X72740Y-46890D01*
X72796Y-46890D01*
X72834Y-46871D01*
X72665Y-46740D02*
X72703Y-46759D01*
X72778Y-46759D01*
X72815Y-46740D01*
X72834Y-46721D01*
X72853Y-46684D01*
X72853Y-46571D01*
X72834Y-46534D01*
X72815Y-46515D01*
X72778Y-46496D01*
X72703Y-46496D01*
X72665Y-46515D01*
X72178Y-46759D02*
X72178Y-46365D01*
X72028Y-46365D01*
X71990Y-46384D01*
X71971Y-46403D01*
X71953Y-46440D01*
X71953Y-46496D01*
X71971Y-46534D01*
X71990Y-46553D01*
X72028Y-46571D01*
X72178Y-46571D01*
X71784Y-46759D02*
X71784Y-46496D01*
X71784Y-46571D02*
X71765Y-46534D01*
X71746Y-46515D01*
X71709Y-46496D01*
X71671Y-46496D01*
X71372Y-46759D02*
X71372Y-46553D01*
X71390Y-46515D01*
X71428Y-46496D01*
X71503Y-46496D01*
X71540Y-46515D01*
X71372Y-46740D02*
X71409Y-46759D01*
X71503Y-46759D01*
X71540Y-46740D01*
X71559Y-46703D01*
X71559Y-46665D01*
X71540Y-46628D01*
X71503Y-46609D01*
X71409Y-46609D01*
X71372Y-46590D01*
X71015Y-46740D02*
X71053Y-46759D01*
X71128Y-46759D01*
X71165Y-46740D01*
X71184Y-46721D01*
X71203Y-46684D01*
X71203Y-46571D01*
X71184Y-46534D01*
X71165Y-46515D01*
X71128Y-46496D01*
X71053Y-46496D01*
X71015Y-46515D01*
X70903Y-46496D02*
X70753Y-46496D01*
X70847Y-46365D02*
X70847Y-46703D01*
X70828Y-46740D01*
X70790Y-46759D01*
X70753Y-46759D01*
X70622Y-46759D02*
X70622Y-46496D01*
X70622Y-46365D02*
X70640Y-46384D01*
X70622Y-46403D01*
X70603Y-46384D01*
X70622Y-46365D01*
X70622Y-46403D01*
X70265Y-46740D02*
X70303Y-46759D01*
X70378Y-46759D01*
X70415Y-46740D01*
X70434Y-46721D01*
X70453Y-46684D01*
X70453Y-46571D01*
X70434Y-46534D01*
X70415Y-46515D01*
X70378Y-46496D01*
X70303Y-46496D01*
X70265Y-46515D01*
X69947Y-46740D02*
X69984Y-46759D01*
X70059Y-46759D01*
X70097Y-46740D01*
X70115Y-46703D01*
X70115Y-46553D01*
X70097Y-46515D01*
X70059Y-46496D01*
X69984Y-46496D01*
X69947Y-46515D01*
X69928Y-46553D01*
X69928Y-46590D01*
X70115Y-46628D01*
G54D12*
G36*
X64233Y-53367D02*
X64267Y-53367D01*
X64267Y-53334D01*
X64267Y-49700D01*
X64267Y-46067D01*
X69983Y-46067D01*
X75700Y-46067D01*
X75700Y-49700D01*
X75700Y-53334D01*
X69983Y-53334D01*
X64267Y-53334D01*
X64267Y-53367D01*
X69983Y-53367D01*
X75733Y-53367D01*
X75733Y-49700D01*
X75733Y-46034D01*
X69983Y-46034D01*
X64233Y-46034D01*
X64233Y-49700D01*
X64233Y-53367D01*
X64233Y-53367D01*
X64233Y-53367D01*
G37*
G36*
X73581Y-50941D02*
X73587Y-50975D01*
X73610Y-51063D01*
X73648Y-51193D01*
X73698Y-51355D01*
X73750Y-51519D01*
X73809Y-51704D01*
X73860Y-51868D01*
X73900Y-52001D01*
X73925Y-52090D01*
X73933Y-52125D01*
X73907Y-52162D01*
X73883Y-52167D01*
X73839Y-52177D01*
X73833Y-52185D01*
X73852Y-52223D01*
X73898Y-52295D01*
X73961Y-52384D01*
X74028Y-52475D01*
X74088Y-52551D01*
X74128Y-52595D01*
X74136Y-52600D01*
X74152Y-52570D01*
X74170Y-52493D01*
X74181Y-52425D01*
X74198Y-52309D01*
X74215Y-52209D01*
X74223Y-52174D01*
X74225Y-52116D01*
X74198Y-52107D01*
X74173Y-52090D01*
X74149Y-52023D01*
X74124Y-51900D01*
X74107Y-51790D01*
X74088Y-51650D01*
X74077Y-51536D01*
X74073Y-51464D01*
X74076Y-51447D01*
X74111Y-51453D01*
X74191Y-51481D01*
X74302Y-51528D01*
X74346Y-51547D01*
X74461Y-51597D01*
X74549Y-51629D01*
X74596Y-51639D01*
X74600Y-51637D01*
X74589Y-51598D01*
X74560Y-51507D01*
X74515Y-51375D01*
X74458Y-51213D01*
X74405Y-51063D01*
X74331Y-50854D01*
X74255Y-50637D01*
X74183Y-50434D01*
X74124Y-50263D01*
X74100Y-50193D01*
X73990Y-49869D01*
X73837Y-49889D01*
X73738Y-49907D01*
X73667Y-49929D01*
X73651Y-49938D01*
X73654Y-49979D01*
X73688Y-50073D01*
X73750Y-50218D01*
X73839Y-50408D01*
X73916Y-50566D01*
X74006Y-50749D01*
X74083Y-50911D01*
X74143Y-51043D01*
X74182Y-51136D01*
X74196Y-51180D01*
X74196Y-51182D01*
X74160Y-51177D01*
X74078Y-51148D01*
X73964Y-51100D01*
X73886Y-51064D01*
X73760Y-51007D01*
X73659Y-50965D01*
X73596Y-50942D01*
X73581Y-50941D01*
X73581Y-50941D01*
X73581Y-50941D01*
G37*
G36*
X72633Y-52050D02*
X72636Y-52220D01*
X72644Y-52330D01*
X72660Y-52386D01*
X72685Y-52397D01*
X72711Y-52378D01*
X72722Y-52336D01*
X72730Y-52246D01*
X72733Y-52129D01*
X72733Y-52128D01*
X72740Y-51992D01*
X72758Y-51915D01*
X72787Y-51901D01*
X72817Y-51934D01*
X72858Y-51965D01*
X72894Y-51953D01*
X72900Y-51930D01*
X72877Y-51886D01*
X72821Y-51822D01*
X72751Y-51756D01*
X72690Y-51710D01*
X72663Y-51700D01*
X72651Y-51731D01*
X72641Y-51815D01*
X72635Y-51938D01*
X72633Y-52050D01*
X72633Y-52050D01*
X72633Y-52050D01*
G37*
G36*
X72278Y-52343D02*
X72302Y-52390D01*
X72333Y-52400D01*
X72376Y-52376D01*
X72385Y-52364D01*
X72389Y-52313D01*
X72354Y-52279D01*
X72306Y-52283D01*
X72296Y-52291D01*
X72278Y-52343D01*
X72278Y-52343D01*
X72278Y-52343D01*
G37*
G36*
X71742Y-52342D02*
X71779Y-52365D01*
X71860Y-52383D01*
X71961Y-52395D01*
X72057Y-52397D01*
X72127Y-52388D01*
X72143Y-52379D01*
X72162Y-52349D01*
X72155Y-52310D01*
X72116Y-52250D01*
X72037Y-52156D01*
X72015Y-52131D01*
X71919Y-52009D01*
X71875Y-51918D01*
X71873Y-51889D01*
X71908Y-51825D01*
X71970Y-51807D01*
X72036Y-51839D01*
X72050Y-51856D01*
X72095Y-51895D01*
X72135Y-51879D01*
X72151Y-51838D01*
X72116Y-51783D01*
X72103Y-51770D01*
X72003Y-51710D01*
X71893Y-51711D01*
X71797Y-51770D01*
X71748Y-51860D01*
X71762Y-51966D01*
X71841Y-52088D01*
X71873Y-52122D01*
X71939Y-52208D01*
X71945Y-52265D01*
X71891Y-52295D01*
X71829Y-52300D01*
X71756Y-52312D01*
X71742Y-52342D01*
X71742Y-52342D01*
X71742Y-52342D01*
G37*
G36*
X71333Y-52032D02*
X71337Y-52210D01*
X71349Y-52327D01*
X71370Y-52384D01*
X71401Y-52387D01*
X71412Y-52377D01*
X71423Y-52335D01*
X71431Y-52246D01*
X71433Y-52150D01*
X71437Y-52019D01*
X71450Y-51944D01*
X71477Y-51917D01*
X71523Y-51928D01*
X71538Y-51936D01*
X71590Y-51952D01*
X71599Y-51929D01*
X71570Y-51877D01*
X71504Y-51804D01*
X71497Y-51797D01*
X71426Y-51737D01*
X71374Y-51703D01*
X71363Y-51700D01*
X71351Y-51731D01*
X71341Y-51815D01*
X71335Y-51936D01*
X71333Y-52032D01*
X71333Y-52032D01*
X71333Y-52032D01*
G37*
G36*
X70267Y-52163D02*
X70279Y-52259D01*
X70310Y-52327D01*
X70316Y-52332D01*
X70405Y-52373D01*
X70526Y-52387D01*
X70645Y-52374D01*
X70706Y-52351D01*
X70792Y-52268D01*
X70841Y-52149D01*
X70851Y-52014D01*
X70824Y-51884D01*
X70757Y-51778D01*
X70725Y-51751D01*
X70618Y-51708D01*
X70494Y-51703D01*
X70381Y-51734D01*
X70332Y-51768D01*
X70288Y-51835D01*
X70296Y-51883D01*
X70348Y-51900D01*
X70405Y-51877D01*
X70433Y-51850D01*
X70508Y-51801D01*
X70590Y-51805D01*
X70664Y-51855D01*
X70717Y-51940D01*
X70733Y-52037D01*
X70711Y-52170D01*
X70651Y-52259D01*
X70562Y-52296D01*
X70452Y-52276D01*
X70431Y-52266D01*
X70374Y-52218D01*
X70384Y-52172D01*
X70450Y-52134D01*
X70520Y-52095D01*
X70526Y-52061D01*
X70472Y-52039D01*
X70400Y-52034D01*
X70315Y-52037D01*
X70277Y-52059D01*
X70267Y-52119D01*
X70267Y-52163D01*
X70267Y-52163D01*
X70267Y-52163D01*
G37*
G36*
X70005Y-51939D02*
X70007Y-52039D01*
X70016Y-52215D01*
X70030Y-52329D01*
X70049Y-52385D01*
X70058Y-52392D01*
X70078Y-52382D01*
X70091Y-52330D01*
X70098Y-52229D01*
X70100Y-52070D01*
X70100Y-52053D01*
X70099Y-51893D01*
X70093Y-51789D01*
X70082Y-51729D01*
X70064Y-51704D01*
X70049Y-51700D01*
X70026Y-51709D01*
X70012Y-51745D01*
X70005Y-51818D01*
X70005Y-51939D01*
X70005Y-51939D01*
X70005Y-51939D01*
G37*
G36*
X69273Y-52173D02*
X69274Y-52260D01*
X69305Y-52312D01*
X69363Y-52348D01*
X69514Y-52398D01*
X69650Y-52382D01*
X69769Y-52303D01*
X69840Y-52212D01*
X69865Y-52111D01*
X69867Y-52067D01*
X69845Y-51901D01*
X69779Y-51783D01*
X69672Y-51717D01*
X69566Y-51701D01*
X69456Y-51718D01*
X69364Y-51761D01*
X69308Y-51820D01*
X69300Y-51852D01*
X69322Y-51893D01*
X69374Y-51894D01*
X69431Y-51853D01*
X69433Y-51850D01*
X69501Y-51811D01*
X69591Y-51802D01*
X69671Y-51824D01*
X69693Y-51842D01*
X69745Y-51941D01*
X69756Y-52048D01*
X69733Y-52151D01*
X69682Y-52237D01*
X69612Y-52291D01*
X69528Y-52300D01*
X69470Y-52277D01*
X69417Y-52223D01*
X69407Y-52169D01*
X69442Y-52136D01*
X69464Y-52134D01*
X69521Y-52112D01*
X69533Y-52081D01*
X69517Y-52047D01*
X69457Y-52037D01*
X69408Y-52040D01*
X69326Y-52052D01*
X69288Y-52084D01*
X69275Y-52158D01*
X69273Y-52173D01*
X69273Y-52173D01*
X69273Y-52173D01*
G37*
G36*
X68595Y-52314D02*
X68601Y-52374D01*
X68637Y-52388D01*
X68683Y-52356D01*
X68705Y-52319D01*
X68742Y-52263D01*
X68800Y-52238D01*
X68803Y-52237D01*
X68803Y-52096D01*
X68813Y-52028D01*
X68832Y-51949D01*
X68850Y-51906D01*
X68851Y-51905D01*
X68885Y-51907D01*
X68922Y-51959D01*
X68951Y-52042D01*
X68961Y-52107D01*
X68932Y-52131D01*
X68883Y-52134D01*
X68822Y-52127D01*
X68803Y-52096D01*
X68803Y-52237D01*
X68883Y-52234D01*
X68979Y-52241D01*
X69032Y-52269D01*
X69061Y-52317D01*
X69103Y-52381D01*
X69143Y-52398D01*
X69164Y-52363D01*
X69165Y-52342D01*
X69152Y-52286D01*
X69120Y-52186D01*
X69075Y-52059D01*
X69053Y-52000D01*
X68985Y-51841D01*
X68929Y-51745D01*
X68878Y-51714D01*
X68828Y-51747D01*
X68772Y-51843D01*
X68712Y-51984D01*
X68662Y-52113D01*
X68622Y-52225D01*
X68598Y-52300D01*
X68595Y-52314D01*
X68595Y-52314D01*
X68595Y-52314D01*
G37*
G36*
X67749Y-51746D02*
X67762Y-51833D01*
X67788Y-51950D01*
X67820Y-52079D01*
X67855Y-52203D01*
X67889Y-52306D01*
X67917Y-52370D01*
X67928Y-52383D01*
X67972Y-52391D01*
X68005Y-52369D01*
X68035Y-52307D01*
X68069Y-52193D01*
X68083Y-52134D01*
X68114Y-52023D01*
X68143Y-51945D01*
X68163Y-51915D01*
X68165Y-51916D01*
X68184Y-51954D01*
X68210Y-52037D01*
X68232Y-52124D01*
X68273Y-52272D01*
X68318Y-52367D01*
X68364Y-52405D01*
X68408Y-52381D01*
X68414Y-52372D01*
X68427Y-52332D01*
X68449Y-52244D01*
X68478Y-52127D01*
X68508Y-51999D01*
X68536Y-51877D01*
X68557Y-51778D01*
X68567Y-51722D01*
X68567Y-51717D01*
X68540Y-51702D01*
X68518Y-51700D01*
X68491Y-51710D01*
X68467Y-51748D01*
X68440Y-51823D01*
X68408Y-51947D01*
X68384Y-52050D01*
X68364Y-52107D01*
X68342Y-52108D01*
X68315Y-52051D01*
X68281Y-51931D01*
X68267Y-51873D01*
X68240Y-51771D01*
X68212Y-51719D01*
X68175Y-51705D01*
X68155Y-51707D01*
X68108Y-51727D01*
X68074Y-51784D01*
X68041Y-51891D01*
X68039Y-51900D01*
X68003Y-52031D01*
X67973Y-52096D01*
X67946Y-52097D01*
X67920Y-52033D01*
X67898Y-51935D01*
X67864Y-51808D01*
X67822Y-51725D01*
X67778Y-51693D01*
X67751Y-51705D01*
X67749Y-51746D01*
X67749Y-51746D01*
X67749Y-51746D01*
G37*
G36*
X67162Y-52314D02*
X67168Y-52374D01*
X67204Y-52388D01*
X67250Y-52356D01*
X67272Y-52319D01*
X67309Y-52263D01*
X67368Y-52238D01*
X67370Y-52237D01*
X67370Y-52096D01*
X67380Y-52028D01*
X67399Y-51949D01*
X67417Y-51906D01*
X67418Y-51905D01*
X67451Y-51907D01*
X67489Y-51959D01*
X67518Y-52042D01*
X67527Y-52107D01*
X67498Y-52131D01*
X67450Y-52134D01*
X67388Y-52127D01*
X67370Y-52096D01*
X67370Y-52237D01*
X67448Y-52234D01*
X67544Y-52242D01*
X67597Y-52273D01*
X67617Y-52306D01*
X67660Y-52370D01*
X67703Y-52393D01*
X67729Y-52369D01*
X67732Y-52345D01*
X67720Y-52287D01*
X67689Y-52186D01*
X67644Y-52058D01*
X67623Y-52000D01*
X67556Y-51839D01*
X67500Y-51743D01*
X67448Y-51711D01*
X67397Y-51744D01*
X67340Y-51840D01*
X67279Y-51984D01*
X67229Y-52113D01*
X67189Y-52225D01*
X67165Y-52300D01*
X67162Y-52314D01*
X67162Y-52314D01*
X67162Y-52314D01*
G37*
G36*
X66667Y-51750D02*
X66696Y-51790D01*
X66749Y-51800D01*
X66788Y-51803D01*
X66813Y-51821D01*
X66827Y-51866D01*
X66835Y-51953D01*
X66841Y-52089D01*
X66851Y-52243D01*
X66870Y-52347D01*
X66895Y-52398D01*
X66924Y-52391D01*
X66946Y-52349D01*
X66956Y-52290D01*
X66964Y-52186D01*
X66967Y-52059D01*
X66967Y-52047D01*
X66968Y-51921D01*
X66974Y-51847D01*
X66991Y-51812D01*
X67022Y-51801D01*
X67050Y-51800D01*
X67117Y-51783D01*
X67133Y-51750D01*
X67120Y-51723D01*
X67070Y-51707D01*
X66973Y-51701D01*
X66900Y-51700D01*
X66773Y-51703D01*
X66701Y-51714D01*
X66670Y-51735D01*
X66667Y-51750D01*
X66667Y-51750D01*
X66667Y-51750D01*
G37*
G36*
X66100Y-51749D02*
X66129Y-51790D01*
X66182Y-51800D01*
X66222Y-51803D01*
X66247Y-51821D01*
X66261Y-51866D01*
X66269Y-51953D01*
X66274Y-52089D01*
X66285Y-52255D01*
X66305Y-52357D01*
X66335Y-52397D01*
X66377Y-52379D01*
X66388Y-52337D01*
X66396Y-52246D01*
X66400Y-52122D01*
X66400Y-52080D01*
X66400Y-51805D01*
X66492Y-51794D01*
X66569Y-51778D01*
X66586Y-51757D01*
X66551Y-51736D01*
X66469Y-51718D01*
X66348Y-51707D01*
X66342Y-51707D01*
X66214Y-51704D01*
X66140Y-51710D01*
X66107Y-51727D01*
X66100Y-51749D01*
X66100Y-51749D01*
X66100Y-51749D01*
G37*
G36*
X65500Y-52186D02*
X65530Y-52288D01*
X65610Y-52363D01*
X65724Y-52399D01*
X65750Y-52400D01*
X65869Y-52376D01*
X65933Y-52334D01*
X65991Y-52259D01*
X65990Y-52206D01*
X65961Y-52180D01*
X65914Y-52185D01*
X65873Y-52228D01*
X65802Y-52286D01*
X65715Y-52296D01*
X65639Y-52256D01*
X65633Y-52250D01*
X65614Y-52188D01*
X65654Y-52131D01*
X65746Y-52089D01*
X65769Y-52083D01*
X65890Y-52032D01*
X65954Y-51945D01*
X65967Y-51866D01*
X65939Y-51771D01*
X65859Y-51716D01*
X65750Y-51700D01*
X65636Y-51719D01*
X65559Y-51769D01*
X65533Y-51835D01*
X65549Y-51891D01*
X65591Y-51890D01*
X65633Y-51850D01*
X65696Y-51812D01*
X65775Y-51801D01*
X65839Y-51822D01*
X65851Y-51835D01*
X65851Y-51887D01*
X65809Y-51939D01*
X65745Y-51966D01*
X65734Y-51967D01*
X65649Y-51993D01*
X65567Y-52057D01*
X65511Y-52138D01*
X65500Y-52186D01*
X65500Y-52186D01*
X65500Y-52186D01*
G37*
G36*
X72072Y-50272D02*
X72074Y-50372D01*
X72082Y-50549D01*
X72096Y-50663D01*
X72116Y-50718D01*
X72125Y-50725D01*
X72154Y-50709D01*
X72166Y-50634D01*
X72167Y-50607D01*
X72185Y-50487D01*
X72242Y-50421D01*
X72339Y-50405D01*
X72356Y-50406D01*
X72416Y-50420D01*
X72447Y-50458D01*
X72464Y-50538D01*
X72467Y-50564D01*
X72486Y-50656D01*
X72513Y-50716D01*
X72525Y-50725D01*
X72545Y-50715D01*
X72557Y-50663D01*
X72564Y-50562D01*
X72567Y-50404D01*
X72567Y-50384D01*
X72565Y-50218D01*
X72558Y-50112D01*
X72546Y-50055D01*
X72528Y-50041D01*
X72525Y-50042D01*
X72495Y-50081D01*
X72471Y-50160D01*
X72467Y-50186D01*
X72450Y-50271D01*
X72418Y-50311D01*
X72350Y-50326D01*
X72337Y-50328D01*
X72242Y-50322D01*
X72189Y-50277D01*
X72168Y-50181D01*
X72167Y-50142D01*
X72155Y-50060D01*
X72116Y-50034D01*
X72092Y-50043D01*
X72078Y-50078D01*
X72072Y-50151D01*
X72072Y-50272D01*
X72072Y-50272D01*
X72072Y-50272D01*
G37*
G36*
X71805Y-50272D02*
X71807Y-50372D01*
X71816Y-50549D01*
X71830Y-50663D01*
X71849Y-50718D01*
X71858Y-50725D01*
X71878Y-50715D01*
X71891Y-50663D01*
X71898Y-50562D01*
X71900Y-50403D01*
X71900Y-50386D01*
X71899Y-50226D01*
X71893Y-50122D01*
X71882Y-50063D01*
X71864Y-50037D01*
X71849Y-50034D01*
X71826Y-50043D01*
X71812Y-50078D01*
X71805Y-50151D01*
X71805Y-50272D01*
X71805Y-50272D01*
X71805Y-50272D01*
G37*
G36*
X71073Y-50503D02*
X71080Y-50605D01*
X71128Y-50672D01*
X71226Y-50711D01*
X71315Y-50725D01*
X71416Y-50730D01*
X71485Y-50709D01*
X71556Y-50649D01*
X71565Y-50640D01*
X71643Y-50525D01*
X71670Y-50395D01*
X71653Y-50267D01*
X71596Y-50154D01*
X71504Y-50072D01*
X71382Y-50034D01*
X71360Y-50034D01*
X71253Y-50051D01*
X71162Y-50095D01*
X71108Y-50155D01*
X71100Y-50185D01*
X71122Y-50227D01*
X71174Y-50227D01*
X71231Y-50186D01*
X71233Y-50184D01*
X71310Y-50139D01*
X71412Y-50145D01*
X71468Y-50167D01*
X71524Y-50231D01*
X71553Y-50332D01*
X71551Y-50446D01*
X71528Y-50522D01*
X71464Y-50605D01*
X71371Y-50632D01*
X71281Y-50619D01*
X71221Y-50583D01*
X71198Y-50531D01*
X71216Y-50484D01*
X71267Y-50467D01*
X71322Y-50445D01*
X71333Y-50415D01*
X71317Y-50381D01*
X71257Y-50371D01*
X71208Y-50373D01*
X71126Y-50385D01*
X71088Y-50418D01*
X71075Y-50490D01*
X71073Y-50503D01*
X71073Y-50503D01*
X71073Y-50503D01*
G37*
G36*
X70433Y-50386D02*
X70435Y-50551D01*
X70442Y-50657D01*
X70454Y-50712D01*
X70473Y-50726D01*
X70475Y-50725D01*
X70504Y-50687D01*
X70527Y-50605D01*
X70533Y-50564D01*
X70549Y-50472D01*
X70575Y-50426D01*
X70627Y-50408D01*
X70644Y-50406D01*
X70748Y-50416D01*
X70810Y-50476D01*
X70833Y-50589D01*
X70833Y-50604D01*
X70844Y-50690D01*
X70870Y-50732D01*
X70902Y-50722D01*
X70919Y-50689D01*
X70930Y-50624D01*
X70933Y-50519D01*
X70930Y-50394D01*
X70921Y-50266D01*
X70907Y-50152D01*
X70891Y-50071D01*
X70875Y-50042D01*
X70844Y-50060D01*
X70833Y-50139D01*
X70821Y-50253D01*
X70779Y-50313D01*
X70699Y-50330D01*
X70663Y-50328D01*
X70592Y-50316D01*
X70557Y-50285D01*
X70543Y-50215D01*
X70540Y-50175D01*
X70523Y-50074D01*
X70489Y-50034D01*
X70482Y-50034D01*
X70460Y-50046D01*
X70445Y-50089D01*
X70437Y-50173D01*
X70434Y-50310D01*
X70433Y-50386D01*
X70433Y-50386D01*
X70433Y-50386D01*
G37*
G36*
X69507Y-50060D02*
X69512Y-50111D01*
X69537Y-50202D01*
X69585Y-50342D01*
X69611Y-50417D01*
X69674Y-50580D01*
X69726Y-50682D01*
X69769Y-50726D01*
X69775Y-50727D01*
X69833Y-50716D01*
X69850Y-50694D01*
X69913Y-50516D01*
X69967Y-50352D01*
X70007Y-50213D01*
X70030Y-50110D01*
X70034Y-50055D01*
X70031Y-50049D01*
X69992Y-50040D01*
X69954Y-50072D01*
X69914Y-50154D01*
X69865Y-50291D01*
X69862Y-50301D01*
X69823Y-50410D01*
X69789Y-50484D01*
X69766Y-50510D01*
X69763Y-50509D01*
X69742Y-50466D01*
X69710Y-50378D01*
X69674Y-50267D01*
X69626Y-50136D01*
X69581Y-50058D01*
X69554Y-50039D01*
X69522Y-50039D01*
X69507Y-50060D01*
X69507Y-50060D01*
X69507Y-50060D01*
G37*
G36*
X68802Y-50466D02*
X68816Y-50535D01*
X68859Y-50596D01*
X68894Y-50632D01*
X68926Y-50653D01*
X68926Y-50375D01*
X68951Y-50259D01*
X68992Y-50192D01*
X69073Y-50139D01*
X69158Y-50142D01*
X69233Y-50193D01*
X69284Y-50283D01*
X69300Y-50384D01*
X69278Y-50501D01*
X69220Y-50586D01*
X69139Y-50630D01*
X69051Y-50624D01*
X68986Y-50581D01*
X68938Y-50492D01*
X68926Y-50375D01*
X68926Y-50653D01*
X69013Y-50712D01*
X69144Y-50734D01*
X69270Y-50696D01*
X69291Y-50683D01*
X69364Y-50595D01*
X69403Y-50471D01*
X69407Y-50333D01*
X69376Y-50203D01*
X69310Y-50102D01*
X69298Y-50092D01*
X69187Y-50041D01*
X69059Y-50041D01*
X68939Y-50092D01*
X68914Y-50110D01*
X68853Y-50181D01*
X68820Y-50275D01*
X68808Y-50359D01*
X68802Y-50466D01*
X68802Y-50466D01*
X68802Y-50466D01*
G37*
G36*
X68233Y-50685D02*
X68250Y-50713D01*
X68306Y-50728D01*
X68413Y-50733D01*
X68451Y-50734D01*
X68669Y-50734D01*
X68660Y-50392D01*
X68651Y-50221D01*
X68637Y-50110D01*
X68620Y-50060D01*
X68602Y-50072D01*
X68584Y-50148D01*
X68570Y-50289D01*
X68567Y-50334D01*
X68550Y-50617D01*
X68392Y-50627D01*
X68285Y-50642D01*
X68238Y-50669D01*
X68233Y-50685D01*
X68233Y-50685D01*
X68233Y-50685D01*
G37*
G36*
X67733Y-50080D02*
X67763Y-50121D01*
X67825Y-50140D01*
X67869Y-50147D01*
X67897Y-50166D01*
X67912Y-50209D01*
X67921Y-50291D01*
X67926Y-50424D01*
X67926Y-50442D01*
X67934Y-50575D01*
X67947Y-50676D01*
X67963Y-50729D01*
X67969Y-50734D01*
X68009Y-50707D01*
X68017Y-50692D01*
X68026Y-50640D01*
X68034Y-50541D01*
X68041Y-50416D01*
X68041Y-50400D01*
X68047Y-50273D01*
X68056Y-50198D01*
X68075Y-50160D01*
X68109Y-50144D01*
X68144Y-50139D01*
X68208Y-50120D01*
X68224Y-50089D01*
X68185Y-50066D01*
X68089Y-50049D01*
X67973Y-50040D01*
X67845Y-50038D01*
X67771Y-50044D01*
X67738Y-50062D01*
X67733Y-50080D01*
X67733Y-50080D01*
X67733Y-50080D01*
G37*
G36*
X67141Y-50703D02*
X67143Y-50727D01*
X67160Y-50734D01*
X67184Y-50734D01*
X67234Y-50706D01*
X67273Y-50650D01*
X67313Y-50593D01*
X67367Y-50573D01*
X67367Y-50425D01*
X67377Y-50349D01*
X67400Y-50276D01*
X67426Y-50235D01*
X67432Y-50234D01*
X67461Y-50261D01*
X67497Y-50323D01*
X67525Y-50393D01*
X67533Y-50435D01*
X67505Y-50459D01*
X67450Y-50467D01*
X67388Y-50453D01*
X67367Y-50425D01*
X67367Y-50573D01*
X67377Y-50570D01*
X67440Y-50567D01*
X67532Y-50576D01*
X67584Y-50611D01*
X67606Y-50650D01*
X67651Y-50715D01*
X67696Y-50735D01*
X67723Y-50710D01*
X67721Y-50654D01*
X67687Y-50540D01*
X67640Y-50411D01*
X67588Y-50281D01*
X67535Y-50165D01*
X67489Y-50078D01*
X67457Y-50035D01*
X67451Y-50034D01*
X67414Y-50042D01*
X67380Y-50076D01*
X67342Y-50144D01*
X67295Y-50256D01*
X67238Y-50410D01*
X67186Y-50556D01*
X67155Y-50649D01*
X67141Y-50703D01*
X67141Y-50703D01*
X67141Y-50703D01*
G37*
G36*
X66440Y-50503D02*
X66447Y-50605D01*
X66495Y-50672D01*
X66593Y-50711D01*
X66682Y-50725D01*
X66783Y-50730D01*
X66852Y-50709D01*
X66923Y-50649D01*
X66932Y-50640D01*
X67010Y-50523D01*
X67038Y-50393D01*
X67020Y-50265D01*
X66961Y-50152D01*
X66866Y-50071D01*
X66740Y-50034D01*
X66719Y-50034D01*
X66619Y-50053D01*
X66531Y-50102D01*
X66475Y-50166D01*
X66467Y-50200D01*
X66486Y-50231D01*
X66546Y-50218D01*
X66627Y-50177D01*
X66710Y-50140D01*
X66780Y-50146D01*
X66812Y-50158D01*
X66884Y-50225D01*
X66922Y-50329D01*
X66919Y-50449D01*
X66895Y-50522D01*
X66831Y-50605D01*
X66738Y-50632D01*
X66648Y-50619D01*
X66587Y-50583D01*
X66565Y-50531D01*
X66582Y-50484D01*
X66633Y-50467D01*
X66689Y-50445D01*
X66700Y-50415D01*
X66683Y-50381D01*
X66623Y-50371D01*
X66575Y-50373D01*
X66493Y-50385D01*
X66455Y-50418D01*
X66441Y-50490D01*
X66440Y-50503D01*
X66440Y-50503D01*
X66440Y-50503D01*
G37*
G36*
X65833Y-50684D02*
X65847Y-50711D01*
X65897Y-50726D01*
X65994Y-50733D01*
X66067Y-50734D01*
X66300Y-50734D01*
X66300Y-50382D01*
X66300Y-50030D01*
X66078Y-50040D01*
X65945Y-50053D01*
X65864Y-50073D01*
X65837Y-50097D01*
X65868Y-50120D01*
X65960Y-50136D01*
X66006Y-50140D01*
X66114Y-50151D01*
X66171Y-50172D01*
X66194Y-50209D01*
X66195Y-50213D01*
X66183Y-50281D01*
X66115Y-50320D01*
X65992Y-50333D01*
X65900Y-50342D01*
X65870Y-50364D01*
X65900Y-50388D01*
X65988Y-50405D01*
X66005Y-50407D01*
X66121Y-50433D01*
X66187Y-50488D01*
X66195Y-50564D01*
X66190Y-50579D01*
X66156Y-50614D01*
X66079Y-50631D01*
X66001Y-50634D01*
X65896Y-50639D01*
X65844Y-50657D01*
X65833Y-50684D01*
X65833Y-50684D01*
X65833Y-50684D01*
G37*
G36*
X64317Y-49117D02*
X64549Y-49117D01*
X64549Y-47652D01*
X64576Y-47437D01*
X64659Y-47234D01*
X64798Y-47056D01*
X64831Y-47025D01*
X64946Y-46940D01*
X65087Y-46863D01*
X65259Y-46795D01*
X65467Y-46734D01*
X65717Y-46679D01*
X66012Y-46629D01*
X66358Y-46583D01*
X66761Y-46540D01*
X67224Y-46498D01*
X67283Y-46493D01*
X67444Y-46484D01*
X67662Y-46475D01*
X67933Y-46468D01*
X68246Y-46461D01*
X68595Y-46457D01*
X68972Y-46453D01*
X69369Y-46450D01*
X69778Y-46449D01*
X70191Y-46449D01*
X70602Y-46450D01*
X71001Y-46452D01*
X71382Y-46456D01*
X71736Y-46460D01*
X72056Y-46466D01*
X72333Y-46473D01*
X72561Y-46482D01*
X72731Y-46491D01*
X72750Y-46493D01*
X73230Y-46534D01*
X73648Y-46579D01*
X74008Y-46627D01*
X74316Y-46679D01*
X74576Y-46738D01*
X74793Y-46804D01*
X74972Y-46878D01*
X75117Y-46961D01*
X75233Y-47055D01*
X75283Y-47109D01*
X75407Y-47300D01*
X75475Y-47513D01*
X75486Y-47734D01*
X75438Y-47948D01*
X75404Y-48025D01*
X75335Y-48141D01*
X75250Y-48245D01*
X75146Y-48337D01*
X75019Y-48419D01*
X74864Y-48492D01*
X74678Y-48557D01*
X74456Y-48615D01*
X74195Y-48666D01*
X73891Y-48711D01*
X73538Y-48752D01*
X73135Y-48789D01*
X72675Y-48824D01*
X72156Y-48856D01*
X71733Y-48880D01*
X71618Y-48884D01*
X71444Y-48886D01*
X71220Y-48888D01*
X70954Y-48888D01*
X70655Y-48887D01*
X70329Y-48886D01*
X69986Y-48884D01*
X69634Y-48880D01*
X69280Y-48877D01*
X68933Y-48872D01*
X68601Y-48867D01*
X68292Y-48862D01*
X68014Y-48857D01*
X67776Y-48851D01*
X67585Y-48845D01*
X67450Y-48839D01*
X67417Y-48836D01*
X66928Y-48796D01*
X66501Y-48754D01*
X66132Y-48709D01*
X65815Y-48660D01*
X65547Y-48605D01*
X65322Y-48545D01*
X65136Y-48477D01*
X64984Y-48400D01*
X64862Y-48315D01*
X64804Y-48261D01*
X64662Y-48075D01*
X64577Y-47868D01*
X64549Y-47652D01*
X64549Y-49117D01*
X69992Y-49125D01*
X75668Y-49134D01*
X75659Y-47625D01*
X75650Y-46117D01*
X69983Y-46117D01*
X64317Y-46117D01*
X64317Y-47617D01*
X64317Y-49117D01*
X64317Y-49117D01*
X64317Y-49117D01*
G37*
G36*
X64636Y-47645D02*
X64660Y-47840D01*
X64737Y-48026D01*
X64869Y-48193D01*
X64977Y-48280D01*
X65126Y-48362D01*
X65325Y-48437D01*
X65575Y-48504D01*
X65867Y-48561D01*
X65867Y-48398D01*
X65884Y-48353D01*
X65927Y-48268D01*
X65987Y-48162D01*
X66054Y-48052D01*
X66118Y-47954D01*
X66168Y-47886D01*
X66174Y-47878D01*
X66211Y-47834D01*
X66215Y-47799D01*
X66181Y-47755D01*
X66116Y-47694D01*
X66013Y-47557D01*
X65969Y-47399D01*
X65987Y-47232D01*
X66016Y-47157D01*
X66065Y-47069D01*
X66124Y-47005D01*
X66205Y-46962D01*
X66319Y-46933D01*
X66477Y-46916D01*
X66663Y-46907D01*
X66837Y-46901D01*
X66958Y-46900D01*
X67035Y-46905D01*
X67083Y-46918D01*
X67112Y-46939D01*
X67122Y-46952D01*
X67137Y-47005D01*
X67149Y-47112D01*
X67158Y-47260D01*
X67165Y-47437D01*
X67168Y-47630D01*
X67169Y-47826D01*
X67166Y-48012D01*
X67160Y-48176D01*
X67151Y-48305D01*
X67138Y-48387D01*
X67132Y-48402D01*
X67075Y-48448D01*
X66985Y-48467D01*
X66894Y-48457D01*
X66840Y-48427D01*
X66819Y-48370D01*
X66805Y-48259D01*
X66800Y-48110D01*
X66797Y-47983D01*
X66787Y-47887D01*
X66774Y-47837D01*
X66768Y-47834D01*
X66677Y-47861D01*
X66577Y-47945D01*
X66466Y-48090D01*
X66433Y-48140D01*
X66359Y-48255D01*
X66293Y-48351D01*
X66247Y-48413D01*
X66239Y-48421D01*
X66178Y-48453D01*
X66089Y-48466D01*
X65993Y-48462D01*
X65912Y-48443D01*
X65869Y-48410D01*
X65867Y-48398D01*
X65867Y-48561D01*
X65879Y-48564D01*
X66238Y-48617D01*
X66655Y-48663D01*
X67132Y-48703D01*
X67306Y-48713D01*
X67306Y-48263D01*
X67306Y-48261D01*
X67317Y-48150D01*
X67692Y-48141D01*
X68067Y-48131D01*
X68067Y-47966D01*
X68067Y-47800D01*
X67733Y-47800D01*
X67400Y-47800D01*
X67400Y-47650D01*
X67400Y-47500D01*
X67733Y-47500D01*
X68067Y-47500D01*
X68067Y-47384D01*
X68067Y-47267D01*
X67775Y-47266D01*
X67596Y-47265D01*
X67474Y-47257D01*
X67396Y-47239D01*
X67354Y-47206D01*
X67337Y-47155D01*
X67333Y-47083D01*
X67344Y-46976D01*
X67378Y-46924D01*
X67386Y-46920D01*
X67450Y-46909D01*
X67561Y-46902D01*
X67704Y-46898D01*
X67864Y-46899D01*
X68026Y-46903D01*
X68174Y-46910D01*
X68295Y-46920D01*
X68373Y-46932D01*
X68393Y-46940D01*
X68408Y-46979D01*
X68420Y-47064D01*
X68427Y-47202D01*
X68432Y-47395D01*
X68433Y-47650D01*
X68433Y-47684D01*
X68432Y-47946D01*
X68428Y-48146D01*
X68421Y-48290D01*
X68410Y-48381D01*
X68395Y-48425D01*
X68393Y-48427D01*
X68342Y-48445D01*
X68240Y-48458D01*
X68101Y-48467D01*
X67941Y-48470D01*
X67774Y-48469D01*
X67615Y-48463D01*
X67479Y-48452D01*
X67381Y-48437D01*
X67335Y-48419D01*
X67311Y-48354D01*
X67306Y-48263D01*
X67306Y-48713D01*
X67670Y-48737D01*
X68273Y-48766D01*
X68300Y-48767D01*
X68638Y-48777D01*
X68638Y-47988D01*
X68641Y-47895D01*
X68650Y-47584D01*
X68928Y-47574D01*
X69092Y-47572D01*
X69200Y-47586D01*
X69264Y-47619D01*
X69293Y-47676D01*
X69300Y-47753D01*
X69278Y-47853D01*
X69209Y-47912D01*
X69087Y-47933D01*
X69069Y-47934D01*
X68990Y-47949D01*
X68968Y-47989D01*
X69003Y-48042D01*
X69065Y-48083D01*
X69210Y-48128D01*
X69351Y-48118D01*
X69472Y-48059D01*
X69553Y-47962D01*
X69579Y-47876D01*
X69596Y-47752D01*
X69600Y-47654D01*
X69596Y-47525D01*
X69578Y-47438D01*
X69542Y-47372D01*
X69520Y-47344D01*
X69460Y-47286D01*
X69392Y-47258D01*
X69291Y-47250D01*
X69267Y-47250D01*
X69157Y-47256D01*
X69087Y-47278D01*
X69033Y-47327D01*
X69021Y-47342D01*
X68944Y-47411D01*
X68852Y-47431D01*
X68742Y-47412D01*
X68681Y-47369D01*
X68671Y-47289D01*
X68712Y-47180D01*
X68742Y-47130D01*
X68864Y-47003D01*
X69026Y-46927D01*
X69231Y-46900D01*
X69243Y-46900D01*
X69467Y-46927D01*
X69652Y-47008D01*
X69800Y-47144D01*
X69904Y-47317D01*
X69946Y-47459D01*
X69965Y-47638D01*
X69959Y-47824D01*
X69931Y-47978D01*
X69869Y-48110D01*
X69767Y-48245D01*
X69643Y-48359D01*
X69558Y-48412D01*
X69409Y-48456D01*
X69229Y-48465D01*
X69042Y-48441D01*
X68883Y-48388D01*
X68773Y-48333D01*
X68700Y-48281D01*
X68659Y-48216D01*
X68641Y-48124D01*
X68638Y-47988D01*
X68638Y-48777D01*
X68662Y-48778D01*
X69074Y-48787D01*
X69522Y-48792D01*
X69989Y-48794D01*
X70138Y-48793D01*
X70138Y-48043D01*
X70139Y-47830D01*
X70141Y-47664D01*
X70150Y-46917D01*
X70261Y-46906D01*
X70342Y-46904D01*
X70399Y-46921D01*
X70435Y-46967D01*
X70456Y-47052D01*
X70465Y-47186D01*
X70467Y-47361D01*
X70469Y-47521D01*
X70476Y-47638D01*
X70486Y-47705D01*
X70497Y-47715D01*
X70524Y-47675D01*
X70576Y-47590D01*
X70647Y-47470D01*
X70728Y-47330D01*
X70735Y-47317D01*
X70818Y-47176D01*
X70891Y-47055D01*
X70947Y-46969D01*
X70979Y-46927D01*
X70981Y-46926D01*
X71061Y-46900D01*
X71156Y-46904D01*
X71236Y-46935D01*
X71266Y-46965D01*
X71278Y-47021D01*
X71288Y-47132D01*
X71294Y-47283D01*
X71299Y-47461D01*
X71300Y-47655D01*
X71299Y-47851D01*
X71296Y-48035D01*
X71289Y-48196D01*
X71280Y-48320D01*
X71269Y-48394D01*
X71265Y-48404D01*
X71222Y-48450D01*
X71147Y-48463D01*
X71106Y-48460D01*
X70983Y-48450D01*
X70967Y-48034D01*
X70950Y-47617D01*
X70745Y-47967D01*
X70638Y-48147D01*
X70558Y-48278D01*
X70499Y-48367D01*
X70452Y-48423D01*
X70413Y-48452D01*
X70373Y-48464D01*
X70327Y-48466D01*
X70324Y-48466D01*
X70263Y-48465D01*
X70217Y-48457D01*
X70184Y-48435D01*
X70161Y-48390D01*
X70147Y-48315D01*
X70140Y-48202D01*
X70138Y-48043D01*
X70138Y-48793D01*
X70460Y-48792D01*
X70918Y-48788D01*
X71349Y-48780D01*
X71403Y-48778D01*
X71403Y-48347D01*
X71427Y-48246D01*
X71477Y-48100D01*
X71553Y-47902D01*
X71561Y-47880D01*
X71635Y-47690D01*
X71707Y-47503D01*
X71771Y-47336D01*
X71820Y-47206D01*
X71834Y-47167D01*
X71878Y-47054D01*
X71919Y-46968D01*
X71948Y-46926D01*
X72003Y-46909D01*
X72091Y-46901D01*
X72108Y-46901D01*
X72207Y-46914D01*
X72269Y-46961D01*
X72279Y-46975D01*
X72303Y-47028D01*
X72346Y-47133D01*
X72403Y-47281D01*
X72470Y-47460D01*
X72543Y-47660D01*
X72568Y-47728D01*
X72651Y-47962D01*
X72712Y-48140D01*
X72751Y-48270D01*
X72769Y-48360D01*
X72767Y-48417D01*
X72745Y-48449D01*
X72702Y-48462D01*
X72641Y-48466D01*
X72617Y-48466D01*
X72532Y-48458D01*
X72479Y-48441D01*
X72447Y-48396D01*
X72411Y-48312D01*
X72399Y-48275D01*
X72356Y-48134D01*
X72102Y-48134D01*
X71847Y-48134D01*
X71776Y-48300D01*
X71733Y-48396D01*
X71694Y-48446D01*
X71642Y-48464D01*
X71574Y-48467D01*
X71491Y-48463D01*
X71435Y-48448D01*
X71406Y-48411D01*
X71403Y-48347D01*
X71403Y-48778D01*
X71736Y-48769D01*
X71883Y-48764D01*
X72504Y-48733D01*
X72833Y-48709D01*
X72833Y-47700D01*
X72856Y-47452D01*
X72923Y-47246D01*
X73031Y-47086D01*
X73177Y-46975D01*
X73359Y-46919D01*
X73372Y-46917D01*
X73504Y-46907D01*
X73662Y-46904D01*
X73783Y-46906D01*
X74017Y-46917D01*
X74026Y-47649D01*
X74028Y-47865D01*
X74028Y-48060D01*
X74027Y-48223D01*
X74024Y-48344D01*
X74020Y-48414D01*
X74019Y-48424D01*
X73979Y-48445D01*
X73890Y-48459D01*
X73767Y-48466D01*
X73627Y-48467D01*
X73487Y-48460D01*
X73363Y-48446D01*
X73291Y-48431D01*
X73119Y-48351D01*
X72984Y-48219D01*
X72889Y-48041D01*
X72840Y-47825D01*
X72833Y-47700D01*
X72833Y-48709D01*
X73061Y-48693D01*
X73554Y-48645D01*
X73983Y-48589D01*
X74348Y-48525D01*
X74647Y-48453D01*
X74881Y-48373D01*
X75050Y-48285D01*
X75052Y-48283D01*
X75218Y-48141D01*
X75324Y-47981D01*
X75375Y-47791D01*
X75382Y-47667D01*
X75356Y-47441D01*
X75278Y-47253D01*
X75144Y-47100D01*
X74950Y-46974D01*
X74946Y-46972D01*
X74748Y-46893D01*
X74485Y-46821D01*
X74159Y-46757D01*
X73771Y-46701D01*
X73323Y-46653D01*
X72815Y-46612D01*
X72251Y-46580D01*
X71631Y-46556D01*
X70956Y-46541D01*
X70229Y-46534D01*
X70017Y-46534D01*
X69246Y-46539D01*
X68535Y-46552D01*
X67884Y-46575D01*
X67293Y-46607D01*
X66764Y-46647D01*
X66298Y-46697D01*
X65895Y-46755D01*
X65555Y-46822D01*
X65280Y-46897D01*
X65071Y-46982D01*
X65066Y-46984D01*
X64881Y-47110D01*
X64748Y-47270D01*
X64666Y-47451D01*
X64636Y-47645D01*
X64636Y-47645D01*
X64636Y-47645D01*
G37*
G36*
X73217Y-47680D02*
X73220Y-47851D01*
X73235Y-47968D01*
X73269Y-48042D01*
X73331Y-48085D01*
X73428Y-48109D01*
X73508Y-48120D01*
X73700Y-48143D01*
X73700Y-47705D01*
X73700Y-47267D01*
X73523Y-47267D01*
X73395Y-47272D01*
X73309Y-47295D01*
X73256Y-47346D01*
X73228Y-47437D01*
X73218Y-47577D01*
X73217Y-47680D01*
X73217Y-47680D01*
X73217Y-47680D01*
G37*
G36*
X71982Y-47742D02*
X71985Y-47783D01*
X72016Y-47798D01*
X72076Y-47800D01*
X72100Y-47800D01*
X72186Y-47797D01*
X72221Y-47781D01*
X72220Y-47741D01*
X72215Y-47725D01*
X72186Y-47643D01*
X72147Y-47543D01*
X72143Y-47534D01*
X72093Y-47417D01*
X72052Y-47534D01*
X72005Y-47663D01*
X71982Y-47742D01*
X71982Y-47742D01*
X71982Y-47742D01*
G37*
G36*
X66339Y-47365D02*
X66352Y-47450D01*
X66422Y-47505D01*
X66551Y-47531D01*
X66623Y-47534D01*
X66800Y-47534D01*
X66800Y-47392D01*
X66800Y-47250D01*
X66575Y-47267D01*
X66455Y-47278D01*
X66386Y-47292D01*
X66353Y-47317D01*
X66340Y-47358D01*
X66339Y-47365D01*
X66339Y-47365D01*
X66339Y-47365D01*
G37*
M02*
