G04 (created by PCBNEW (2013-07-07 BZR 4022)-stable) date 1/29/2014 11:22:53 AM*
%MOIN*%
G04 Gerber Fmt 3.4, Leading zero omitted, Abs format*
%FSLAX34Y34*%
G01*
G70*
G90*
G04 APERTURE LIST*
%ADD10C,0.00590551*%
%ADD11R,0.08X0.06*%
%ADD12R,0.055X0.035*%
%ADD13R,0.045X0.025*%
%ADD14R,0.05X0.015*%
%ADD15C,0.07*%
%ADD16R,0.35X0.35*%
%ADD17R,0.0512X0.0118*%
%ADD18C,0.06*%
G04 APERTURE END LIST*
G54D10*
G36*
X69316Y-54954D02*
X69191Y-54829D01*
X69747Y-54272D01*
X69873Y-54397D01*
X69316Y-54954D01*
X69316Y-54954D01*
G37*
G36*
X69093Y-54731D02*
X68968Y-54606D01*
X69525Y-54049D01*
X69650Y-54175D01*
X69093Y-54731D01*
X69093Y-54731D01*
G37*
G36*
X68871Y-54508D02*
X68745Y-54383D01*
X69302Y-53827D01*
X69427Y-53952D01*
X68871Y-54508D01*
X68871Y-54508D01*
G37*
G36*
X68648Y-54286D02*
X68523Y-54160D01*
X69079Y-53604D01*
X69204Y-53729D01*
X68648Y-54286D01*
X68648Y-54286D01*
G37*
G36*
X68425Y-54063D02*
X68300Y-53938D01*
X68856Y-53381D01*
X68982Y-53506D01*
X68425Y-54063D01*
X68425Y-54063D01*
G37*
G36*
X68202Y-53840D02*
X68077Y-53715D01*
X68634Y-53159D01*
X68759Y-53284D01*
X68202Y-53840D01*
X68202Y-53840D01*
G37*
G36*
X67980Y-53617D02*
X67854Y-53492D01*
X68411Y-52936D01*
X68536Y-53061D01*
X67980Y-53617D01*
X67980Y-53617D01*
G37*
G36*
X67757Y-53395D02*
X67632Y-53270D01*
X68188Y-52713D01*
X68313Y-52838D01*
X67757Y-53395D01*
X67757Y-53395D01*
G37*
G36*
X70421Y-50733D02*
X70296Y-50608D01*
X70853Y-50051D01*
X70978Y-50177D01*
X70421Y-50733D01*
X70421Y-50733D01*
G37*
G36*
X71984Y-52296D02*
X71859Y-52171D01*
X72415Y-51614D01*
X72540Y-51739D01*
X71984Y-52296D01*
X71984Y-52296D01*
G37*
G36*
X71758Y-52070D02*
X71633Y-51944D01*
X72189Y-51388D01*
X72314Y-51513D01*
X71758Y-52070D01*
X71758Y-52070D01*
G37*
G36*
X71531Y-51843D02*
X71406Y-51718D01*
X71963Y-51162D01*
X72088Y-51287D01*
X71531Y-51843D01*
X71531Y-51843D01*
G37*
G36*
X71312Y-51624D02*
X71187Y-51499D01*
X71744Y-50942D01*
X71869Y-51068D01*
X71312Y-51624D01*
X71312Y-51624D01*
G37*
G36*
X71086Y-51398D02*
X70961Y-51273D01*
X71517Y-50716D01*
X71642Y-50841D01*
X71086Y-51398D01*
X71086Y-51398D01*
G37*
G36*
X70867Y-51179D02*
X70742Y-51053D01*
X71298Y-50497D01*
X71423Y-50622D01*
X70867Y-51179D01*
X70867Y-51179D01*
G37*
G36*
X70640Y-50952D02*
X70515Y-50827D01*
X71072Y-50271D01*
X71197Y-50396D01*
X70640Y-50952D01*
X70640Y-50952D01*
G37*
G36*
X68185Y-52283D02*
X67629Y-51727D01*
X67754Y-51601D01*
X68311Y-52158D01*
X68185Y-52283D01*
X68185Y-52283D01*
G37*
G36*
X68407Y-52061D02*
X67851Y-51505D01*
X67976Y-51379D01*
X68533Y-51936D01*
X68407Y-52061D01*
X68407Y-52061D01*
G37*
G36*
X68631Y-51838D02*
X68074Y-51281D01*
X68200Y-51156D01*
X68756Y-51712D01*
X68631Y-51838D01*
X68631Y-51838D01*
G37*
G36*
X68853Y-51616D02*
X68296Y-51059D01*
X68422Y-50934D01*
X68978Y-51490D01*
X68853Y-51616D01*
X68853Y-51616D01*
G37*
G36*
X69076Y-51392D02*
X68520Y-50836D01*
X68645Y-50711D01*
X69201Y-51267D01*
X69076Y-51392D01*
X69076Y-51392D01*
G37*
G36*
X69298Y-51170D02*
X68742Y-50614D01*
X68867Y-50488D01*
X69424Y-51045D01*
X69298Y-51170D01*
X69298Y-51170D01*
G37*
G36*
X69522Y-50947D02*
X68965Y-50390D01*
X69090Y-50265D01*
X69647Y-50822D01*
X69522Y-50947D01*
X69522Y-50947D01*
G37*
G36*
X69744Y-50725D02*
X69187Y-50168D01*
X69312Y-50043D01*
X69869Y-50600D01*
X69744Y-50725D01*
X69744Y-50725D01*
G37*
G36*
X70860Y-54955D02*
X70303Y-54398D01*
X70428Y-54273D01*
X70985Y-54829D01*
X70860Y-54955D01*
X70860Y-54955D01*
G37*
G36*
X71079Y-54735D02*
X70522Y-54179D01*
X70648Y-54054D01*
X71204Y-54610D01*
X71079Y-54735D01*
X71079Y-54735D01*
G37*
G36*
X71305Y-54509D02*
X70749Y-53953D01*
X70874Y-53827D01*
X71430Y-54384D01*
X71305Y-54509D01*
X71305Y-54509D01*
G37*
G36*
X71524Y-54290D02*
X70968Y-53733D01*
X71093Y-53608D01*
X71649Y-54165D01*
X71524Y-54290D01*
X71524Y-54290D01*
G37*
G36*
X71744Y-54071D02*
X71187Y-53514D01*
X71312Y-53389D01*
X71869Y-53946D01*
X71744Y-54071D01*
X71744Y-54071D01*
G37*
G36*
X71970Y-53844D02*
X71413Y-53288D01*
X71538Y-53163D01*
X72095Y-53719D01*
X71970Y-53844D01*
X71970Y-53844D01*
G37*
G36*
X72196Y-53618D02*
X71640Y-53062D01*
X71765Y-52936D01*
X72321Y-53493D01*
X72196Y-53618D01*
X72196Y-53618D01*
G37*
G36*
X72422Y-53392D02*
X71866Y-52835D01*
X71991Y-52710D01*
X72548Y-53267D01*
X72422Y-53392D01*
X72422Y-53392D01*
G37*
G54D11*
X62700Y-47850D03*
X62700Y-46550D03*
G54D12*
X64700Y-46725D03*
X64700Y-47475D03*
G54D13*
X66300Y-46750D03*
X66300Y-47350D03*
G54D14*
X71850Y-47234D03*
X71850Y-46978D03*
X71850Y-46722D03*
X71850Y-46466D03*
X70150Y-46466D03*
X70150Y-46722D03*
X70150Y-46978D03*
X70150Y-47234D03*
X78502Y-48246D03*
X78502Y-47990D03*
X78502Y-47734D03*
X78502Y-47478D03*
X78502Y-47222D03*
X78502Y-46966D03*
X78502Y-46710D03*
X78502Y-46454D03*
X76298Y-46454D03*
X76298Y-46710D03*
X76298Y-46966D03*
X76298Y-47222D03*
X76298Y-47478D03*
X76298Y-47734D03*
X76298Y-47990D03*
X76298Y-48246D03*
G54D15*
X82500Y-55000D03*
X80500Y-55000D03*
X81500Y-55000D03*
G54D16*
X81500Y-48500D03*
G54D14*
X69200Y-47234D03*
X69200Y-46978D03*
X69200Y-46722D03*
X69200Y-46466D03*
X67500Y-46466D03*
X67500Y-46722D03*
X67500Y-46978D03*
X67500Y-47234D03*
G54D17*
X75350Y-47960D03*
X75350Y-47710D03*
X75350Y-47450D03*
X75350Y-47200D03*
X75350Y-46940D03*
X75350Y-46685D03*
X75350Y-46430D03*
X73150Y-46430D03*
X73150Y-46685D03*
X73150Y-46940D03*
X73150Y-47200D03*
X73150Y-47455D03*
X73150Y-47710D03*
X73150Y-47965D03*
G54D18*
X62500Y-55500D03*
X63500Y-55500D03*
X64500Y-55500D03*
X65500Y-55500D03*
X66500Y-55500D03*
X67500Y-55500D03*
X68500Y-55500D03*
X69500Y-55500D03*
X70500Y-55500D03*
X71500Y-55500D03*
X72500Y-55500D03*
X73500Y-55500D03*
X74500Y-55500D03*
X75500Y-55500D03*
X76500Y-55500D03*
X77500Y-55500D03*
X77500Y-49500D03*
X76500Y-49500D03*
X75500Y-49500D03*
X74500Y-49500D03*
X73500Y-49500D03*
X72500Y-49500D03*
X71500Y-49500D03*
X70500Y-49500D03*
X69500Y-49500D03*
X68500Y-49500D03*
X67500Y-49500D03*
X66500Y-49500D03*
X65500Y-49500D03*
X64500Y-49500D03*
X63500Y-49500D03*
X62500Y-49500D03*
M02*
