M48
;DRILL file {Pcbnew (2013-07-07 BZR 4022)-stable} date 1/29/2014 11:13:59 AM
;FORMAT={2:4/ absolute / inch / suppress leading zeros}
FMAT,2
INCH,TZ
T1C0.012
T2C0.040
T3C0.045
T4C0.120
%
G90
G05
M72
T1
X63650Y-47850
X64600Y-48750
X64900Y-48750
X65200Y-48750
X65600Y-46750
X73950Y-48750
X74250Y-48750
X74550Y-48750
T2
X62500Y-49500
X62500Y-55500
X63500Y-49500
X63500Y-55500
X64500Y-49500
X64500Y-55500
X65500Y-49500
X65500Y-55500
X66500Y-49500
X66500Y-55500
X67500Y-49500
X67500Y-55500
X68500Y-49500
X68500Y-55500
X69500Y-49500
X69500Y-55500
X70500Y-49500
X70500Y-55500
X71500Y-49500
X71500Y-55500
X72500Y-49500
X72500Y-55500
X73500Y-49500
X73500Y-55500
X74500Y-49500
X74500Y-55500
X75500Y-49500
X75500Y-55500
X76500Y-49500
X76500Y-55500
X77500Y-49500
X77500Y-55500
T3
X80500Y-55000
X81500Y-55000
X82500Y-55000
T4
X81500Y-48500
T0
M30
