G04 #@! TF.FileFunction,Copper,L2,Bot,Signal*
%FSLAX46Y46*%
G04 Gerber Fmt 4.6, Leading zero omitted, Abs format (unit mm)*
G04 Created by KiCad (PCBNEW 4.0.3-stable) date Wednesday, October 19, 2016 'PMt' 12:35:23 PM*
%MOMM*%
%LPD*%
G01*
G04 APERTURE LIST*
%ADD10C,0.100000*%
%ADD11R,4.000000X4.000000*%
%ADD12R,5.500000X5.500000*%
%ADD13C,0.685800*%
%ADD14C,0.254000*%
G04 APERTURE END LIST*
D10*
D11*
X158750000Y-106680000D03*
D12*
X145950000Y-106680000D03*
X171550000Y-106680000D03*
D13*
X158750000Y-110490000D03*
X153670000Y-109220000D03*
X161290000Y-101600000D03*
D14*
X158750000Y-106680000D02*
X158750000Y-110490000D01*
G36*
X177090000Y-123750000D02*
X140410000Y-123750000D01*
X140410000Y-106965750D01*
X142565000Y-106965750D01*
X142565000Y-109556310D01*
X142661673Y-109789699D01*
X142840302Y-109968327D01*
X143073691Y-110065000D01*
X145664250Y-110065000D01*
X145823000Y-109906250D01*
X145823000Y-106807000D01*
X146077000Y-106807000D01*
X146077000Y-109906250D01*
X146235750Y-110065000D01*
X148826309Y-110065000D01*
X149059698Y-109968327D01*
X149238327Y-109789699D01*
X149335000Y-109556310D01*
X149335000Y-106965750D01*
X149176250Y-106807000D01*
X146077000Y-106807000D01*
X145823000Y-106807000D01*
X142723750Y-106807000D01*
X142565000Y-106965750D01*
X140410000Y-106965750D01*
X140410000Y-103803690D01*
X142565000Y-103803690D01*
X142565000Y-106394250D01*
X142723750Y-106553000D01*
X145823000Y-106553000D01*
X145823000Y-103453750D01*
X146077000Y-103453750D01*
X146077000Y-106553000D01*
X149176250Y-106553000D01*
X149335000Y-106394250D01*
X149335000Y-104680000D01*
X156102560Y-104680000D01*
X156102560Y-108680000D01*
X156146838Y-108915317D01*
X156285910Y-109131441D01*
X156498110Y-109276431D01*
X156750000Y-109327440D01*
X157988000Y-109327440D01*
X157988000Y-109868917D01*
X157921460Y-109935341D01*
X157772270Y-110294630D01*
X157771931Y-110683663D01*
X157920493Y-111043212D01*
X158195341Y-111318540D01*
X158554630Y-111467730D01*
X158943663Y-111468069D01*
X159303212Y-111319507D01*
X159578540Y-111044659D01*
X159727730Y-110685370D01*
X159728069Y-110296337D01*
X159579507Y-109936788D01*
X159512000Y-109869163D01*
X159512000Y-109327440D01*
X160750000Y-109327440D01*
X160985317Y-109283162D01*
X161201441Y-109144090D01*
X161346431Y-108931890D01*
X161397440Y-108680000D01*
X161397440Y-106965750D01*
X168165000Y-106965750D01*
X168165000Y-109556310D01*
X168261673Y-109789699D01*
X168440302Y-109968327D01*
X168673691Y-110065000D01*
X171264250Y-110065000D01*
X171423000Y-109906250D01*
X171423000Y-106807000D01*
X171677000Y-106807000D01*
X171677000Y-109906250D01*
X171835750Y-110065000D01*
X174426309Y-110065000D01*
X174659698Y-109968327D01*
X174838327Y-109789699D01*
X174935000Y-109556310D01*
X174935000Y-106965750D01*
X174776250Y-106807000D01*
X171677000Y-106807000D01*
X171423000Y-106807000D01*
X168323750Y-106807000D01*
X168165000Y-106965750D01*
X161397440Y-106965750D01*
X161397440Y-104680000D01*
X161353162Y-104444683D01*
X161214090Y-104228559D01*
X161001890Y-104083569D01*
X160750000Y-104032560D01*
X156750000Y-104032560D01*
X156514683Y-104076838D01*
X156298559Y-104215910D01*
X156153569Y-104428110D01*
X156102560Y-104680000D01*
X149335000Y-104680000D01*
X149335000Y-103803690D01*
X168165000Y-103803690D01*
X168165000Y-106394250D01*
X168323750Y-106553000D01*
X171423000Y-106553000D01*
X171423000Y-103453750D01*
X171677000Y-103453750D01*
X171677000Y-106553000D01*
X174776250Y-106553000D01*
X174935000Y-106394250D01*
X174935000Y-103803690D01*
X174838327Y-103570301D01*
X174659698Y-103391673D01*
X174426309Y-103295000D01*
X171835750Y-103295000D01*
X171677000Y-103453750D01*
X171423000Y-103453750D01*
X171264250Y-103295000D01*
X168673691Y-103295000D01*
X168440302Y-103391673D01*
X168261673Y-103570301D01*
X168165000Y-103803690D01*
X149335000Y-103803690D01*
X149238327Y-103570301D01*
X149059698Y-103391673D01*
X148826309Y-103295000D01*
X146235750Y-103295000D01*
X146077000Y-103453750D01*
X145823000Y-103453750D01*
X145664250Y-103295000D01*
X143073691Y-103295000D01*
X142840302Y-103391673D01*
X142661673Y-103570301D01*
X142565000Y-103803690D01*
X140410000Y-103803690D01*
X140410000Y-89610000D01*
X177090000Y-89610000D01*
X177090000Y-123750000D01*
X177090000Y-123750000D01*
G37*
X177090000Y-123750000D02*
X140410000Y-123750000D01*
X140410000Y-106965750D01*
X142565000Y-106965750D01*
X142565000Y-109556310D01*
X142661673Y-109789699D01*
X142840302Y-109968327D01*
X143073691Y-110065000D01*
X145664250Y-110065000D01*
X145823000Y-109906250D01*
X145823000Y-106807000D01*
X146077000Y-106807000D01*
X146077000Y-109906250D01*
X146235750Y-110065000D01*
X148826309Y-110065000D01*
X149059698Y-109968327D01*
X149238327Y-109789699D01*
X149335000Y-109556310D01*
X149335000Y-106965750D01*
X149176250Y-106807000D01*
X146077000Y-106807000D01*
X145823000Y-106807000D01*
X142723750Y-106807000D01*
X142565000Y-106965750D01*
X140410000Y-106965750D01*
X140410000Y-103803690D01*
X142565000Y-103803690D01*
X142565000Y-106394250D01*
X142723750Y-106553000D01*
X145823000Y-106553000D01*
X145823000Y-103453750D01*
X146077000Y-103453750D01*
X146077000Y-106553000D01*
X149176250Y-106553000D01*
X149335000Y-106394250D01*
X149335000Y-104680000D01*
X156102560Y-104680000D01*
X156102560Y-108680000D01*
X156146838Y-108915317D01*
X156285910Y-109131441D01*
X156498110Y-109276431D01*
X156750000Y-109327440D01*
X157988000Y-109327440D01*
X157988000Y-109868917D01*
X157921460Y-109935341D01*
X157772270Y-110294630D01*
X157771931Y-110683663D01*
X157920493Y-111043212D01*
X158195341Y-111318540D01*
X158554630Y-111467730D01*
X158943663Y-111468069D01*
X159303212Y-111319507D01*
X159578540Y-111044659D01*
X159727730Y-110685370D01*
X159728069Y-110296337D01*
X159579507Y-109936788D01*
X159512000Y-109869163D01*
X159512000Y-109327440D01*
X160750000Y-109327440D01*
X160985317Y-109283162D01*
X161201441Y-109144090D01*
X161346431Y-108931890D01*
X161397440Y-108680000D01*
X161397440Y-106965750D01*
X168165000Y-106965750D01*
X168165000Y-109556310D01*
X168261673Y-109789699D01*
X168440302Y-109968327D01*
X168673691Y-110065000D01*
X171264250Y-110065000D01*
X171423000Y-109906250D01*
X171423000Y-106807000D01*
X171677000Y-106807000D01*
X171677000Y-109906250D01*
X171835750Y-110065000D01*
X174426309Y-110065000D01*
X174659698Y-109968327D01*
X174838327Y-109789699D01*
X174935000Y-109556310D01*
X174935000Y-106965750D01*
X174776250Y-106807000D01*
X171677000Y-106807000D01*
X171423000Y-106807000D01*
X168323750Y-106807000D01*
X168165000Y-106965750D01*
X161397440Y-106965750D01*
X161397440Y-104680000D01*
X161353162Y-104444683D01*
X161214090Y-104228559D01*
X161001890Y-104083569D01*
X160750000Y-104032560D01*
X156750000Y-104032560D01*
X156514683Y-104076838D01*
X156298559Y-104215910D01*
X156153569Y-104428110D01*
X156102560Y-104680000D01*
X149335000Y-104680000D01*
X149335000Y-103803690D01*
X168165000Y-103803690D01*
X168165000Y-106394250D01*
X168323750Y-106553000D01*
X171423000Y-106553000D01*
X171423000Y-103453750D01*
X171677000Y-103453750D01*
X171677000Y-106553000D01*
X174776250Y-106553000D01*
X174935000Y-106394250D01*
X174935000Y-103803690D01*
X174838327Y-103570301D01*
X174659698Y-103391673D01*
X174426309Y-103295000D01*
X171835750Y-103295000D01*
X171677000Y-103453750D01*
X171423000Y-103453750D01*
X171264250Y-103295000D01*
X168673691Y-103295000D01*
X168440302Y-103391673D01*
X168261673Y-103570301D01*
X168165000Y-103803690D01*
X149335000Y-103803690D01*
X149238327Y-103570301D01*
X149059698Y-103391673D01*
X148826309Y-103295000D01*
X146235750Y-103295000D01*
X146077000Y-103453750D01*
X145823000Y-103453750D01*
X145664250Y-103295000D01*
X143073691Y-103295000D01*
X142840302Y-103391673D01*
X142661673Y-103570301D01*
X142565000Y-103803690D01*
X140410000Y-103803690D01*
X140410000Y-89610000D01*
X177090000Y-89610000D01*
X177090000Y-123750000D01*
M02*
